<svg xmlns="http://www.w3.org/2000/svg" width="100" height="60" viewBox="0 0 48 32"><path fill="#1A1F71" d="M0 0h48v32H0z"/><path fill="#fff" d="M20.3 21.3h-3l1.9-11.5h3zM29.6 9.9c-.6-.2-1.6-.4-2.7-.4-3 0-5.1 1.6-5.1 3.9 0 1.7 1.5 2.6 2.6 3.2 1.2.6 1.6 1 1.6 1.5 0 .8-1 1.2-1.9 1.2-1.3 0-2-.2-3.1-.7l-.4-.2-.5 2.8c.8.3 2.3.6 3.9.6 3.1 0 5.2-1.6 5.2-4 0-1.3-.8-2.4-2.5-3.2-1-.5-1.7-.9-1.7-1.5 0-.5.5-1 1.8-1 1 0 1.7.2 2.3.5l.3.1.5-2.8zM34.3 17.1c.3-.9 1.3-4.2 1.3-4.2s.3-.9.5-1.5l.2.9s.6 3.3.8 4.9h-2.8zm4.2 4.2h2.6l-2.3-11.5h-2.4c-.5 0-.9.3-1.1.8l-4.3 10.7h3l.6-1.5h3.7l.3 1.5zM16.6 9.8l-2.9 7.9-.3-1.6c-.6-1.8-2.3-3.8-4.2-4.8l2.7 9.9h3.2l4.7-11.4h-3.2z"/></svg>